<svg xmlns="http://www.w3.org/2000/svg" width="100" height="39">
  <path fill="#549E38" fill-rule="nonzero" d="M18.8 38.2c-.5 0-.9-.3-1-.8-.1-.5.2-1.1.8-1.2 10.2-2.4 20.1-6.9 29.7-11.3 1.8-.8 3.6-1.7 5.4-2.5-1.3-.7-4.8-2.5-9.4-4.6-7 3.1-14.1 6-21.6 7.9-12.3 3.1-20-1.2-22.1-6.9-1.6-4.3.1-8.5 4.2-10.6 9.2-4.7 27.7 2 39.6 7.4l6.6-3C60.5 8 70.4 3.4 80.9 1c.5-.1 1.1.2 1.2.8.1.6-.2 1.1-.8 1.2-10.2 2.4-20.1 6.9-29.7 11.3-1.7.8-3.3 1.5-5 2.3 4.8 2.2 8.1 4 8.5 4.3.3.1.6.3.8.4 6.9-3.1 14-5.9 21.3-7.8 12.3-3.1 20 1.2 22.1 6.9 1.6 4.3-.1 8.5-4.2 10.6-12.4 6.3-23.1.8-35.5-5.6-1.2-.6-2.5-1.3-3.8-1.9-2.3 1-4.6 2.1-6.8 3.1-9.6 4.5-19.6 9.1-30.1 11.5.1 0 0 .1-.1.1zm39.5-15.7c.8.4 1.6.8 2.3 1.2 12.4 6.4 22.2 11.4 33.7 5.6 3.2-1.6 4.4-4.9 3.2-8.1-1.8-4.9-8.6-8.5-19.7-5.7-6.7 1.6-13.2 4.2-19.5 7zm-45.7-14c-2.7 0-5.1.4-7 1.4A6.28 6.28 0 0 0 2.4 18c1.8 4.9 8.6 8.5 19.7 5.7 6.8-1.7 13.3-4.3 19.7-7.1-8.8-3.8-20.5-8.1-29.2-8.1z"/>
</svg>
